<mxfile host="app.diagrams.net" agent="Mozilla/5.0 (Windows NT 10.0; Win64; x64) AppleWebKit/537.36 (KHTML, like Gecko) Chrome/130.0.0.0 Safari/537.36" version="24.8.2">
  <diagram id="R2lEEEUBdFMjLlhIrx00" name="Page-1">
    <mxGraphModel dx="2412" dy="754" grid="1" gridSize="10" guides="1" tooltips="1" connect="1" arrows="1" fold="1" page="1" pageScale="1" pageWidth="850" pageHeight="1100" math="0" shadow="0" extFonts="Permanent Marker^https://fonts.googleapis.com/css?family=Permanent+Marker">
      <root>
        <mxCell id="0" />
        <mxCell id="1" parent="0" />
        <mxCell id="imJ08O7aE8gu0QzwsTVR-275" style="edgeStyle=orthogonalEdgeStyle;rounded=0;orthogonalLoop=1;jettySize=auto;html=1;exitX=0.5;exitY=1;exitDx=0;exitDy=0;entryX=0.5;entryY=0;entryDx=0;entryDy=0;" parent="1" source="j_OEzUGsQaTigC9FzTrX-2" target="imJ08O7aE8gu0QzwsTVR-7" edge="1">
          <mxGeometry relative="1" as="geometry">
            <mxPoint x="-590" y="500" as="targetPoint" />
          </mxGeometry>
        </mxCell>
        <mxCell id="j_OEzUGsQaTigC9FzTrX-2" value="Races" style="text;html=1;align=center;verticalAlign=middle;whiteSpace=wrap;rounded=0;strokeColor=#3F5AB3;fillColor=#C1CEE8;strokeWidth=2;fontStyle=1;container=0;fontSize=22;" parent="1" vertex="1">
          <mxGeometry x="-609.9963068181819" y="330.24333333333334" width="103.4147727272727" height="51.707317073170735" as="geometry" />
        </mxCell>
        <mxCell id="imJ08O7aE8gu0QzwsTVR-168" style="edgeStyle=orthogonalEdgeStyle;rounded=0;orthogonalLoop=1;jettySize=auto;html=1;exitX=0;exitY=0.5;exitDx=0;exitDy=0;entryX=0.5;entryY=1;entryDx=0;entryDy=0;" parent="1" source="j_OEzUGsQaTigC9FzTrX-4" target="j_OEzUGsQaTigC9FzTrX-57" edge="1">
          <mxGeometry relative="1" as="geometry" />
        </mxCell>
        <mxCell id="j_OEzUGsQaTigC9FzTrX-4" value="Horses" style="text;html=1;align=center;verticalAlign=middle;whiteSpace=wrap;rounded=0;strokeColor=#6c8ebf;fillColor=#dae8fc;strokeWidth=2;fontStyle=1;container=0;fontSize=22;" parent="1" vertex="1">
          <mxGeometry x="79.99977272727264" y="767.2365040650407" width="103.4147727272727" height="51.707317073170735" as="geometry" />
        </mxCell>
        <mxCell id="imJ08O7aE8gu0QzwsTVR-159" style="edgeStyle=orthogonalEdgeStyle;rounded=0;orthogonalLoop=1;jettySize=auto;html=1;exitX=0;exitY=0.5;exitDx=0;exitDy=0;entryX=1;entryY=1;entryDx=0;entryDy=0;" parent="1" source="j_OEzUGsQaTigC9FzTrX-5" target="j_OEzUGsQaTigC9FzTrX-54" edge="1">
          <mxGeometry relative="1" as="geometry">
            <Array as="points">
              <mxPoint x="730" y="802" />
              <mxPoint x="730" y="802" />
            </Array>
          </mxGeometry>
        </mxCell>
        <mxCell id="j_OEzUGsQaTigC9FzTrX-5" value="Jockeys" style="text;html=1;align=center;verticalAlign=middle;whiteSpace=wrap;rounded=0;strokeColor=#82b366;fillColor=#d5e8d4;strokeWidth=2;fontStyle=1;container=0;fontSize=22;" parent="1" vertex="1">
          <mxGeometry x="911.7006818181815" y="775.860162601626" width="103.4147727272727" height="51.707317073170735" as="geometry" />
        </mxCell>
        <mxCell id="imJ08O7aE8gu0QzwsTVR-272" style="edgeStyle=orthogonalEdgeStyle;rounded=0;orthogonalLoop=1;jettySize=auto;html=1;exitX=0;exitY=0.5;exitDx=0;exitDy=0;entryX=1;entryY=1;entryDx=0;entryDy=0;" parent="1" source="j_OEzUGsQaTigC9FzTrX-6" target="j_OEzUGsQaTigC9FzTrX-49" edge="1">
          <mxGeometry relative="1" as="geometry">
            <Array as="points">
              <mxPoint x="-84" y="335" />
              <mxPoint x="-84" y="356" />
            </Array>
          </mxGeometry>
        </mxCell>
        <mxCell id="j_OEzUGsQaTigC9FzTrX-6" value="Tracks" style="text;html=1;align=center;verticalAlign=middle;whiteSpace=wrap;rounded=0;strokeColor=#66FFB3;fillColor=#CCFFE6;strokeWidth=2;fontStyle=1;container=0;fontSize=22;" parent="1" vertex="1">
          <mxGeometry x="43.00238636363626" y="308.7023577235772" width="103.4147727272727" height="51.707317073170735" as="geometry" />
        </mxCell>
        <mxCell id="imJ08O7aE8gu0QzwsTVR-165" style="edgeStyle=orthogonalEdgeStyle;rounded=0;orthogonalLoop=1;jettySize=auto;html=1;exitX=0.5;exitY=1;exitDx=0;exitDy=0;entryX=1;entryY=1;entryDx=0;entryDy=0;" parent="1" source="j_OEzUGsQaTigC9FzTrX-7" target="j_OEzUGsQaTigC9FzTrX-51" edge="1">
          <mxGeometry relative="1" as="geometry">
            <Array as="points">
              <mxPoint x="1327" y="304" />
              <mxPoint x="1248" y="304" />
            </Array>
          </mxGeometry>
        </mxCell>
        <mxCell id="j_OEzUGsQaTigC9FzTrX-7" value="Owners" style="text;html=1;align=center;verticalAlign=middle;whiteSpace=wrap;rounded=0;strokeColor=#d79b00;fillColor=#ffe6cc;strokeWidth=2;fontStyle=1;flipH=0;flipV=1;container=0;fontSize=22;" parent="1" vertex="1">
          <mxGeometry x="1275.0025" y="140.65430894308946" width="103.4147727272727" height="51.707317073170735" as="geometry" />
        </mxCell>
        <mxCell id="imJ08O7aE8gu0QzwsTVR-155" style="edgeStyle=orthogonalEdgeStyle;rounded=0;orthogonalLoop=1;jettySize=auto;html=1;exitX=0.5;exitY=1;exitDx=0;exitDy=0;entryX=1;entryY=0;entryDx=0;entryDy=0;" parent="1" source="j_OEzUGsQaTigC9FzTrX-8" target="imJ08O7aE8gu0QzwsTVR-152" edge="1">
          <mxGeometry relative="1" as="geometry" />
        </mxCell>
        <mxCell id="imJ08O7aE8gu0QzwsTVR-160" style="edgeStyle=orthogonalEdgeStyle;rounded=0;orthogonalLoop=1;jettySize=auto;html=1;exitX=0;exitY=1;exitDx=0;exitDy=0;entryX=1;entryY=1;entryDx=0;entryDy=0;" parent="1" source="j_OEzUGsQaTigC9FzTrX-8" target="j_OEzUGsQaTigC9FzTrX-65" edge="1">
          <mxGeometry relative="1" as="geometry">
            <Array as="points">
              <mxPoint x="825" y="503" />
              <mxPoint x="638" y="503" />
            </Array>
          </mxGeometry>
        </mxCell>
        <mxCell id="imJ08O7aE8gu0QzwsTVR-171" style="edgeStyle=orthogonalEdgeStyle;rounded=0;orthogonalLoop=1;jettySize=auto;html=1;exitX=0;exitY=0.5;exitDx=0;exitDy=0;entryX=1;entryY=0.5;entryDx=0;entryDy=0;" parent="1" source="j_OEzUGsQaTigC9FzTrX-8" target="j_OEzUGsQaTigC9FzTrX-74" edge="1">
          <mxGeometry relative="1" as="geometry" />
        </mxCell>
        <mxCell id="j_OEzUGsQaTigC9FzTrX-8" value="Trainers" style="text;html=1;align=center;verticalAlign=middle;whiteSpace=wrap;rounded=0;strokeColor=#d6b656;fillColor=#fff2cc;strokeWidth=2;fontStyle=1;container=0;fontSize=22;" parent="1" vertex="1">
          <mxGeometry x="825.52125" y="308.7019512195122" width="103.4147727272727" height="51.707317073170735" as="geometry" />
        </mxCell>
        <mxCell id="j_OEzUGsQaTigC9FzTrX-15" value="&lt;font style=&quot;font-size: 14px;&quot;&gt;host&lt;/font&gt;" style="rhombus;whiteSpace=wrap;html=1;container=0;fontSize=14;fillColor=#EBE0FF;strokeColor=#8F87AB;" parent="1" vertex="1">
          <mxGeometry x="-350.0040909090909" y="321.62081300813014" width="137.88636363636363" height="68.9430894308943" as="geometry" />
        </mxCell>
        <mxCell id="j_OEzUGsQaTigC9FzTrX-22" value="&lt;font style=&quot;font-size: 14px;&quot;&gt;jockeys on horses&lt;/font&gt;" style="rhombus;whiteSpace=wrap;html=1;container=0;fontSize=14;fillColor=#E0E0E0;" parent="1" vertex="1">
          <mxGeometry x="538.859431818182" y="767.238617886179" width="137.88636363636363" height="68.9430894308943" as="geometry" />
        </mxCell>
        <mxCell id="j_OEzUGsQaTigC9FzTrX-37" value="&lt;font style=&quot;font-size: 13px;&quot;&gt;owners with trainers&lt;/font&gt;" style="rhombus;whiteSpace=wrap;html=1;fontSize=14;flipH=0;flipV=1;container=0;fillColor=#b1ddf0;strokeColor=#10739e;" parent="1" vertex="1">
          <mxGeometry x="1110.0049999999994" y="269.9139024390243" width="137.88636363636363" height="68.9430894308943" as="geometry" />
        </mxCell>
        <mxCell id="imJ08O7aE8gu0QzwsTVR-274" style="edgeStyle=orthogonalEdgeStyle;rounded=0;orthogonalLoop=1;jettySize=auto;html=1;exitX=0;exitY=1;exitDx=0;exitDy=0;entryX=1;entryY=0.5;entryDx=0;entryDy=0;" parent="1" source="j_OEzUGsQaTigC9FzTrX-49" target="j_OEzUGsQaTigC9FzTrX-2" edge="1">
          <mxGeometry relative="1" as="geometry">
            <Array as="points">
              <mxPoint x="-390" y="356" />
              <mxPoint x="-390" y="356" />
            </Array>
          </mxGeometry>
        </mxCell>
        <mxCell id="j_OEzUGsQaTigC9FzTrX-49" value="N&amp;nbsp; &amp;nbsp; &amp;nbsp; &amp;nbsp; &amp;nbsp; &amp;nbsp; &amp;nbsp; &amp;nbsp; 1" style="text;html=1;align=center;verticalAlign=middle;whiteSpace=wrap;rounded=0;container=0;fontSize=14;" parent="1" vertex="1">
          <mxGeometry x="-350.0040909090909" y="304.3850406504065" width="137.88636363636363" height="51.707317073170735" as="geometry" />
        </mxCell>
        <mxCell id="imJ08O7aE8gu0QzwsTVR-166" style="edgeStyle=orthogonalEdgeStyle;rounded=0;orthogonalLoop=1;jettySize=auto;html=1;exitX=0;exitY=1;exitDx=0;exitDy=0;entryX=1;entryY=0.5;entryDx=0;entryDy=0;" parent="1" source="j_OEzUGsQaTigC9FzTrX-51" target="j_OEzUGsQaTigC9FzTrX-8" edge="1">
          <mxGeometry relative="1" as="geometry">
            <Array as="points">
              <mxPoint x="1060" y="304" />
              <mxPoint x="1060" y="335" />
            </Array>
          </mxGeometry>
        </mxCell>
        <mxCell id="j_OEzUGsQaTigC9FzTrX-51" value="N&amp;nbsp; &amp;nbsp; &amp;nbsp; &amp;nbsp; &amp;nbsp; &amp;nbsp; &amp;nbsp; &amp;nbsp; N" style="text;html=1;align=center;verticalAlign=middle;whiteSpace=wrap;rounded=0;container=0;fontSize=14;fillColor=none;strokeColor=none;" parent="1" vertex="1">
          <mxGeometry x="1110.0049999999994" y="252.6781300813007" width="137.88636363636363" height="51.707317073170735" as="geometry" />
        </mxCell>
        <mxCell id="imJ08O7aE8gu0QzwsTVR-162" style="edgeStyle=orthogonalEdgeStyle;rounded=0;orthogonalLoop=1;jettySize=auto;html=1;exitX=0;exitY=1;exitDx=0;exitDy=0;entryX=1;entryY=0.5;entryDx=0;entryDy=0;" parent="1" source="j_OEzUGsQaTigC9FzTrX-54" target="j_OEzUGsQaTigC9FzTrX-4" edge="1">
          <mxGeometry relative="1" as="geometry">
            <Array as="points">
              <mxPoint x="470" y="802" />
              <mxPoint x="470" y="802" />
            </Array>
          </mxGeometry>
        </mxCell>
        <mxCell id="j_OEzUGsQaTigC9FzTrX-54" value="N&amp;nbsp; &amp;nbsp; &amp;nbsp; &amp;nbsp; &amp;nbsp; &amp;nbsp; &amp;nbsp; &amp;nbsp; N" style="text;html=1;align=center;verticalAlign=middle;whiteSpace=wrap;rounded=0;container=0;fontSize=14;fillColor=none;" parent="1" vertex="1">
          <mxGeometry x="538.859431818182" y="750.0028455284554" width="137.88636363636363" height="51.707317073170735" as="geometry" />
        </mxCell>
        <mxCell id="imJ08O7aE8gu0QzwsTVR-169" style="edgeStyle=orthogonalEdgeStyle;rounded=0;orthogonalLoop=1;jettySize=auto;html=1;exitX=0.5;exitY=0;exitDx=0;exitDy=0;entryX=0.5;entryY=1;entryDx=0;entryDy=0;" parent="1" source="j_OEzUGsQaTigC9FzTrX-57" target="j_OEzUGsQaTigC9FzTrX-6" edge="1">
          <mxGeometry relative="1" as="geometry" />
        </mxCell>
        <mxCell id="j_OEzUGsQaTigC9FzTrX-57" value="&lt;font style=&quot;font-size: 14px;&quot;&gt;horses at tracks&lt;/font&gt;" style="rhombus;whiteSpace=wrap;html=1;fontSize=14;container=0;fillColor=#FFCCFF;strokeColor=#990099;" parent="1" vertex="1">
          <mxGeometry x="25.770795454545265" y="562.9258536585367" width="137.88636363636363" height="68.9430894308943" as="geometry" />
        </mxCell>
        <mxCell id="j_OEzUGsQaTigC9FzTrX-64" value="&lt;font style=&quot;font-size: 14px;&quot;&gt;train horses&lt;/font&gt;" style="rhombus;whiteSpace=wrap;html=1;container=0;fontSize=14;fillColor=#bac8d3;strokeColor=#23445d;" parent="1" vertex="1">
          <mxGeometry x="425.00363636363625" y="468.1312195121952" width="137.88636363636363" height="68.9430894308943" as="geometry" />
        </mxCell>
        <mxCell id="imJ08O7aE8gu0QzwsTVR-161" style="edgeStyle=orthogonalEdgeStyle;rounded=0;orthogonalLoop=1;jettySize=auto;html=1;exitX=0;exitY=1;exitDx=0;exitDy=0;entryX=1;entryY=0;entryDx=0;entryDy=0;" parent="1" source="j_OEzUGsQaTigC9FzTrX-65" target="j_OEzUGsQaTigC9FzTrX-4" edge="1">
          <mxGeometry relative="1" as="geometry">
            <Array as="points">
              <mxPoint x="262" y="503" />
            </Array>
          </mxGeometry>
        </mxCell>
        <mxCell id="j_OEzUGsQaTigC9FzTrX-65" value="N&amp;nbsp; &amp;nbsp; &amp;nbsp; &amp;nbsp; &amp;nbsp; &amp;nbsp; &amp;nbsp; &amp;nbsp; N" style="text;html=1;align=center;verticalAlign=middle;whiteSpace=wrap;rounded=0;container=0;fontSize=14;fillColor=none;strokeColor=none;" parent="1" vertex="1">
          <mxGeometry x="425.00363636363625" y="450.8954471544716" width="137.88636363636363" height="51.707317073170735" as="geometry" />
        </mxCell>
        <mxCell id="j_OEzUGsQaTigC9FzTrX-74" value="trainers at tracks" style="rhombus;whiteSpace=wrap;html=1;fontSize=14;container=0;fillColor=#E0FFFF;strokeColor=#0e8088;" parent="1" vertex="1">
          <mxGeometry x="379.9951136363635" y="252.67463414634148" width="137.88636363636363" height="68.9430894308943" as="geometry" />
        </mxCell>
        <mxCell id="imJ08O7aE8gu0QzwsTVR-172" style="edgeStyle=orthogonalEdgeStyle;rounded=0;orthogonalLoop=1;jettySize=auto;html=1;exitX=0;exitY=1;exitDx=0;exitDy=0;entryX=1;entryY=0.5;entryDx=0;entryDy=0;" parent="1" source="j_OEzUGsQaTigC9FzTrX-75" target="j_OEzUGsQaTigC9FzTrX-6" edge="1">
          <mxGeometry relative="1" as="geometry">
            <Array as="points">
              <mxPoint x="270" y="287" />
              <mxPoint x="270" y="335" />
            </Array>
          </mxGeometry>
        </mxCell>
        <mxCell id="j_OEzUGsQaTigC9FzTrX-75" value="N&amp;nbsp; &amp;nbsp; &amp;nbsp; &amp;nbsp; &amp;nbsp; &amp;nbsp; &amp;nbsp; &amp;nbsp; N" style="text;html=1;align=center;verticalAlign=middle;whiteSpace=wrap;rounded=0;container=0;fontSize=14;fillColor=none;strokeColor=none;" parent="1" vertex="1">
          <mxGeometry x="379.9951136363635" y="235.4388617886179" width="137.88636363636363" height="51.707317073170735" as="geometry" />
        </mxCell>
        <mxCell id="imJ08O7aE8gu0QzwsTVR-156" style="edgeStyle=orthogonalEdgeStyle;rounded=0;orthogonalLoop=1;jettySize=auto;html=1;exitX=0.5;exitY=1;exitDx=0;exitDy=0;entryX=0.5;entryY=0;entryDx=0;entryDy=0;" parent="1" source="j_OEzUGsQaTigC9FzTrX-78" target="j_OEzUGsQaTigC9FzTrX-5" edge="1">
          <mxGeometry relative="1" as="geometry" />
        </mxCell>
        <mxCell id="j_OEzUGsQaTigC9FzTrX-78" value="&lt;font style=&quot;font-size: 12px;&quot;&gt;trainers with jockeys&lt;/font&gt;" style="rhombus;whiteSpace=wrap;html=1;fontSize=14;flipH=0;flipV=1;container=0;fillColor=#d0cee2;strokeColor=#56517e;" parent="1" vertex="1">
          <mxGeometry x="894.4670454545451" y="615.780487804878" width="137.88636363636363" height="68.9430894308943" as="geometry" />
        </mxCell>
        <mxCell id="imJ08O7aE8gu0QzwsTVR-3" value="" style="text;html=1;align=center;verticalAlign=middle;whiteSpace=wrap;rounded=0;strokeColor=#b85450;fillColor=#f8cecc;strokeWidth=2;fontStyle=1;container=0;fontSize=22;" parent="1" vertex="1">
          <mxGeometry x="-672.77" y="669.0351219512195" width="155.1221590909091" height="51.707317073170735" as="geometry" />
        </mxCell>
        <mxCell id="imJ08O7aE8gu0QzwsTVR-276" style="edgeStyle=orthogonalEdgeStyle;rounded=0;orthogonalLoop=1;jettySize=auto;html=1;exitX=0.5;exitY=1;exitDx=0;exitDy=0;entryX=0.5;entryY=0;entryDx=0;entryDy=0;" parent="1" source="imJ08O7aE8gu0QzwsTVR-7" target="imJ08O7aE8gu0QzwsTVR-3" edge="1">
          <mxGeometry relative="1" as="geometry" />
        </mxCell>
        <mxCell id="imJ08O7aE8gu0QzwsTVR-7" value="" style="rhombus;whiteSpace=wrap;html=1;container=0;fontSize=14;fillColor=#E6FFCC;strokeColor=#009900;perimeterSpacing=0;" parent="1" vertex="1">
          <mxGeometry x="-664.15" y="505.85739837398387" width="137.88636363636363" height="68.9430894308943" as="geometry" />
        </mxCell>
        <mxCell id="imJ08O7aE8gu0QzwsTVR-86" value="total races" style="ellipse;whiteSpace=wrap;html=1;fontSize=13;container=0;fillColor=#dae8fc;strokeColor=#6c8ebf;" parent="1" vertex="1">
          <mxGeometry x="-117.97340909090912" y="894.799593495935" width="68.94318181818181" height="34.47154471544715" as="geometry" />
        </mxCell>
        <mxCell id="imJ08O7aE8gu0QzwsTVR-87" value="wins" style="ellipse;whiteSpace=wrap;html=1;fontSize=14;container=0;fillColor=#dae8fc;strokeColor=#6c8ebf;" parent="1" vertex="1">
          <mxGeometry x="-31.794431818181863" y="894.799593495935" width="68.94318181818181" height="34.47154471544715" as="geometry" />
        </mxCell>
        <mxCell id="imJ08O7aE8gu0QzwsTVR-88" value="places" style="ellipse;whiteSpace=wrap;html=1;fontSize=14;container=0;fillColor=#dae8fc;strokeColor=#6c8ebf;" parent="1" vertex="1">
          <mxGeometry x="54.38454545454536" y="894.799593495935" width="68.94318181818181" height="34.47154471544715" as="geometry" />
        </mxCell>
        <mxCell id="imJ08O7aE8gu0QzwsTVR-89" value="shows" style="ellipse;whiteSpace=wrap;html=1;fontSize=14;container=0;fillColor=#dae8fc;strokeColor=#6c8ebf;" parent="1" vertex="1">
          <mxGeometry x="142.02659090909088" y="894.7969105691058" width="68.94318181818181" height="34.47154471544715" as="geometry" />
        </mxCell>
        <mxCell id="imJ08O7aE8gu0QzwsTVR-116" value="&lt;font style=&quot;font-size: 13px;&quot;&gt;total races&lt;/font&gt;" style="ellipse;whiteSpace=wrap;html=1;fontSize=14;container=0;fillColor=#ffe6cc;strokeColor=#d79b00;" parent="1" vertex="1">
          <mxGeometry x="1412.888863636364" y="155.09065040650407" width="68.94318181818181" height="34.47154471544715" as="geometry" />
        </mxCell>
        <mxCell id="imJ08O7aE8gu0QzwsTVR-117" value="wins" style="ellipse;whiteSpace=wrap;html=1;fontSize=14;container=0;fillColor=#ffe6cc;strokeColor=#d79b00;" parent="1" vertex="1">
          <mxGeometry x="1499.0678409090906" y="155.09065040650407" width="68.94318181818181" height="34.47154471544715" as="geometry" />
        </mxCell>
        <mxCell id="imJ08O7aE8gu0QzwsTVR-118" value="places" style="ellipse;whiteSpace=wrap;html=1;fontSize=14;container=0;fillColor=#ffe6cc;strokeColor=#d79b00;" parent="1" vertex="1">
          <mxGeometry x="1585.2468181818176" y="155.09065040650407" width="68.94318181818181" height="34.47154471544715" as="geometry" />
        </mxCell>
        <mxCell id="imJ08O7aE8gu0QzwsTVR-119" value="shows" style="ellipse;whiteSpace=wrap;html=1;fontSize=14;container=0;fillColor=#ffe6cc;strokeColor=#d79b00;" parent="1" vertex="1">
          <mxGeometry x="1412.888863636364" y="206.79796747967478" width="68.94318181818181" height="34.47154471544715" as="geometry" />
        </mxCell>
        <mxCell id="imJ08O7aE8gu0QzwsTVR-120" value="&lt;font style=&quot;font-size: 10px;&quot;&gt;avg&lt;/font&gt;&lt;div style=&quot;font-size: 10px;&quot;&gt;&lt;span style=&quot;background-color: initial; font-size: 10px;&quot;&gt;pos factor&lt;/span&gt;&lt;/div&gt;" style="ellipse;whiteSpace=wrap;html=1;fontSize=10;container=0;fillColor=#ffe6cc;strokeColor=#d79b00;" parent="1" vertex="1">
          <mxGeometry x="1499.0678409090906" y="206.79796747967478" width="68.94318181818181" height="34.47154471544715" as="geometry" />
        </mxCell>
        <mxCell id="imJ08O7aE8gu0QzwsTVR-121" value="&lt;font style=&quot;font-size: 10px;&quot;&gt; ewma&lt;/font&gt;&lt;div style=&quot;font-size: 10px;&quot;&gt;&lt;font style=&quot;font-size: 10px;&quot;&gt;perf factor&lt;/font&gt;&lt;/div&gt;" style="ellipse;whiteSpace=wrap;html=1;fontSize=10;container=0;fillColor=#ffe6cc;strokeColor=#d79b00;" parent="1" vertex="1">
          <mxGeometry x="1585.2468181818176" y="206.79796747967478" width="68.94318181818181" height="34.47154471544715" as="geometry" />
        </mxCell>
        <mxCell id="imJ08O7aE8gu0QzwsTVR-147" value="1&lt;div style=&quot;font-size: 14px;&quot;&gt;&lt;br style=&quot;font-size: 14px;&quot;&gt;&lt;/div&gt;&lt;div style=&quot;font-size: 14px;&quot;&gt;&lt;br style=&quot;font-size: 14px;&quot;&gt;&lt;/div&gt;&lt;div style=&quot;font-size: 14px;&quot;&gt;&lt;br style=&quot;font-size: 14px;&quot;&gt;&lt;/div&gt;&lt;div style=&quot;font-size: 14px;&quot;&gt;N&lt;/div&gt;" style="text;html=1;align=center;verticalAlign=middle;whiteSpace=wrap;rounded=0;container=0;fontSize=14;" parent="1" vertex="1">
          <mxGeometry x="-595.2068181818182" y="514.4752845528457" width="103.4147727272727" height="51.707317073170735" as="geometry" />
        </mxCell>
        <mxCell id="imJ08O7aE8gu0QzwsTVR-151" value="N&lt;div style=&quot;font-size: 14px;&quot;&gt;&lt;br style=&quot;font-size: 14px;&quot;&gt;&lt;/div&gt;&lt;div style=&quot;font-size: 14px;&quot;&gt;&lt;br style=&quot;font-size: 14px;&quot;&gt;&lt;/div&gt;&lt;div style=&quot;font-size: 14px;&quot;&gt;N&lt;/div&gt;" style="text;html=1;align=center;verticalAlign=middle;whiteSpace=wrap;rounded=0;container=0;fontSize=14;fillColor=none;" parent="1" vertex="1">
          <mxGeometry x="94.71397727272713" y="571.5437398373983" width="103.4147727272727" height="51.707317073170735" as="geometry" />
        </mxCell>
        <mxCell id="imJ08O7aE8gu0QzwsTVR-152" value="N&lt;div style=&quot;font-size: 14px;&quot;&gt;&lt;br style=&quot;font-size: 14px;&quot;&gt;&lt;/div&gt;&lt;div style=&quot;font-size: 14px;&quot;&gt;&lt;br style=&quot;font-size: 14px;&quot;&gt;&lt;/div&gt;&lt;div style=&quot;font-size: 14px;&quot;&gt;N&lt;/div&gt;" style="text;html=1;align=center;verticalAlign=middle;whiteSpace=wrap;rounded=0;container=0;fontSize=14;" parent="1" vertex="1">
          <mxGeometry x="859.9954545454545" y="624.3983739837399" width="103.4147727272727" height="51.707317073170735" as="geometry" />
        </mxCell>
        <mxCell id="imJ08O7aE8gu0QzwsTVR-173" value="&lt;u&gt;owner id&lt;/u&gt;" style="ellipse;whiteSpace=wrap;html=1;fontSize=14;container=0;fillColor=#ffe6cc;strokeColor=#d79b00;" parent="1" vertex="1">
          <mxGeometry x="1410.1678409090907" y="106.18065040650409" width="68.94318181818181" height="34.47154471544715" as="geometry" />
        </mxCell>
        <mxCell id="imJ08O7aE8gu0QzwsTVR-174" value="name" style="ellipse;whiteSpace=wrap;html=1;fontSize=14;container=0;fillColor=#ffe6cc;strokeColor=#d79b00;" parent="1" vertex="1">
          <mxGeometry x="1496.3468181818178" y="106.18065040650409" width="68.94318181818181" height="34.47154471544715" as="geometry" />
        </mxCell>
        <mxCell id="imJ08O7aE8gu0QzwsTVR-175" value="&lt;font style=&quot;font-size: 13px;&quot;&gt;total races&lt;/font&gt;" style="ellipse;whiteSpace=wrap;html=1;fontSize=14;container=0;fillColor=#b1ddf0;strokeColor=#10739e;" parent="1" vertex="1">
          <mxGeometry x="1179.9988636363641" y="381.95065040650405" width="68.94318181818181" height="34.47154471544715" as="geometry" />
        </mxCell>
        <mxCell id="imJ08O7aE8gu0QzwsTVR-176" value="wins" style="ellipse;whiteSpace=wrap;html=1;fontSize=14;container=0;fillColor=#b1ddf0;strokeColor=#10739e;" parent="1" vertex="1">
          <mxGeometry x="1266.1778409090907" y="381.95065040650405" width="68.94318181818181" height="34.47154471544715" as="geometry" />
        </mxCell>
        <mxCell id="imJ08O7aE8gu0QzwsTVR-177" value="places" style="ellipse;whiteSpace=wrap;html=1;fontSize=14;container=0;fillColor=#b1ddf0;strokeColor=#10739e;" parent="1" vertex="1">
          <mxGeometry x="1352.3568181818177" y="381.95065040650405" width="68.94318181818181" height="34.47154471544715" as="geometry" />
        </mxCell>
        <mxCell id="imJ08O7aE8gu0QzwsTVR-178" value="shows" style="ellipse;whiteSpace=wrap;html=1;fontSize=14;container=0;fillColor=#b1ddf0;strokeColor=#10739e;" parent="1" vertex="1">
          <mxGeometry x="1179.9988636363641" y="433.65796747967477" width="68.94318181818181" height="34.47154471544715" as="geometry" />
        </mxCell>
        <mxCell id="imJ08O7aE8gu0QzwsTVR-179" value="&lt;font style=&quot;font-size: 10px;&quot;&gt;avg&lt;/font&gt;&lt;div style=&quot;font-size: 10px;&quot;&gt;&lt;span style=&quot;background-color: initial; font-size: 10px;&quot;&gt;pos factor&lt;/span&gt;&lt;/div&gt;" style="ellipse;whiteSpace=wrap;html=1;fontSize=10;container=0;fillColor=#b1ddf0;strokeColor=#10739e;" parent="1" vertex="1">
          <mxGeometry x="1266.1778409090907" y="433.65796747967477" width="68.94318181818181" height="34.47154471544715" as="geometry" />
        </mxCell>
        <mxCell id="imJ08O7aE8gu0QzwsTVR-180" value="&lt;font style=&quot;font-size: 10px;&quot;&gt; ewma&lt;/font&gt;&lt;div style=&quot;font-size: 10px;&quot;&gt;&lt;font style=&quot;font-size: 10px;&quot;&gt;perf factor&lt;/font&gt;&lt;/div&gt;" style="ellipse;whiteSpace=wrap;html=1;fontSize=10;container=0;fillColor=#b1ddf0;strokeColor=#10739e;" parent="1" vertex="1">
          <mxGeometry x="1352.3568181818177" y="433.65796747967477" width="68.94318181818181" height="34.47154471544715" as="geometry" />
        </mxCell>
        <mxCell id="imJ08O7aE8gu0QzwsTVR-181" value="&lt;u&gt;owner id&lt;/u&gt;" style="ellipse;whiteSpace=wrap;html=1;fontSize=14;container=0;fillColor=#b1ddf0;strokeColor=#10739e;" parent="1" vertex="1">
          <mxGeometry x="1223.0878409090906" y="327.15065040650404" width="68.94318181818181" height="34.47154471544715" as="geometry" />
        </mxCell>
        <mxCell id="imJ08O7aE8gu0QzwsTVR-182" value="&lt;u&gt;trainer id&lt;/u&gt;" style="ellipse;whiteSpace=wrap;html=1;fontSize=14;container=0;fillColor=#b1ddf0;strokeColor=#10739e;" parent="1" vertex="1">
          <mxGeometry x="1309.2668181818176" y="327.15065040650404" width="68.94318181818181" height="34.47154471544715" as="geometry" />
        </mxCell>
        <mxCell id="imJ08O7aE8gu0QzwsTVR-183" value="&lt;font style=&quot;font-size: 13px;&quot;&gt;total races&lt;/font&gt;" style="ellipse;whiteSpace=wrap;html=1;fontSize=14;container=0;fillColor=#d0cee2;strokeColor=#56517e;" parent="1" vertex="1">
          <mxGeometry x="1050.7288636363642" y="634.5606504065041" width="68.94318181818181" height="34.47154471544715" as="geometry" />
        </mxCell>
        <mxCell id="imJ08O7aE8gu0QzwsTVR-184" value="wins" style="ellipse;whiteSpace=wrap;html=1;fontSize=14;container=0;fillColor=#d0cee2;strokeColor=#56517e;" parent="1" vertex="1">
          <mxGeometry x="1136.9078409090907" y="634.5606504065041" width="68.94318181818181" height="34.47154471544715" as="geometry" />
        </mxCell>
        <mxCell id="imJ08O7aE8gu0QzwsTVR-185" value="places" style="ellipse;whiteSpace=wrap;html=1;fontSize=14;container=0;fillColor=#d0cee2;strokeColor=#56517e;" parent="1" vertex="1">
          <mxGeometry x="1223.0868181818178" y="634.5606504065041" width="68.94318181818181" height="34.47154471544715" as="geometry" />
        </mxCell>
        <mxCell id="imJ08O7aE8gu0QzwsTVR-186" value="shows" style="ellipse;whiteSpace=wrap;html=1;fontSize=14;container=0;fillColor=#d0cee2;strokeColor=#56517e;" parent="1" vertex="1">
          <mxGeometry x="1050.7288636363642" y="686.2679674796749" width="68.94318181818181" height="34.47154471544715" as="geometry" />
        </mxCell>
        <mxCell id="imJ08O7aE8gu0QzwsTVR-187" value="&lt;font style=&quot;font-size: 10px;&quot;&gt;avg&lt;/font&gt;&lt;div style=&quot;font-size: 10px;&quot;&gt;&lt;span style=&quot;background-color: initial; font-size: 10px;&quot;&gt;pos factor&lt;/span&gt;&lt;/div&gt;" style="ellipse;whiteSpace=wrap;html=1;fontSize=10;container=0;fillColor=#d0cee2;strokeColor=#56517e;" parent="1" vertex="1">
          <mxGeometry x="1136.9078409090907" y="686.2679674796749" width="68.94318181818181" height="34.47154471544715" as="geometry" />
        </mxCell>
        <mxCell id="imJ08O7aE8gu0QzwsTVR-188" value="&lt;font style=&quot;font-size: 10px;&quot;&gt; ewma&lt;/font&gt;&lt;div style=&quot;font-size: 10px;&quot;&gt;&lt;font style=&quot;font-size: 10px;&quot;&gt;perf factor&lt;/font&gt;&lt;/div&gt;" style="ellipse;whiteSpace=wrap;html=1;fontSize=10;container=0;fillColor=#d0cee2;strokeColor=#56517e;" parent="1" vertex="1">
          <mxGeometry x="1223.0868181818178" y="686.2679674796749" width="68.94318181818181" height="34.47154471544715" as="geometry" />
        </mxCell>
        <mxCell id="imJ08O7aE8gu0QzwsTVR-189" value="&lt;u&gt;trainer id&lt;/u&gt;" style="ellipse;whiteSpace=wrap;html=1;fontSize=14;container=0;fillColor=#d0cee2;strokeColor=#56517e;" parent="1" vertex="1">
          <mxGeometry x="1093.8178409090906" y="579.7606504065042" width="68.94318181818181" height="34.47154471544715" as="geometry" />
        </mxCell>
        <mxCell id="imJ08O7aE8gu0QzwsTVR-190" value="&lt;u&gt;jockey id&lt;/u&gt;" style="ellipse;whiteSpace=wrap;html=1;fontSize=14;container=0;fillColor=#d0cee2;strokeColor=#56517e;" parent="1" vertex="1">
          <mxGeometry x="1179.9968181818176" y="579.7606504065042" width="68.94318181818181" height="34.47154471544715" as="geometry" />
        </mxCell>
        <mxCell id="imJ08O7aE8gu0QzwsTVR-191" value="&lt;font style=&quot;font-size: 13px;&quot;&gt;total races&lt;/font&gt;" style="ellipse;whiteSpace=wrap;html=1;fontSize=14;container=0;fillColor=#d5e8d4;strokeColor=#82b366;" parent="1" vertex="1">
          <mxGeometry x="989.998863636364" y="890.9806504065041" width="68.94318181818181" height="34.47154471544715" as="geometry" />
        </mxCell>
        <mxCell id="imJ08O7aE8gu0QzwsTVR-192" value="wins" style="ellipse;whiteSpace=wrap;html=1;fontSize=14;container=0;fillColor=#d5e8d4;strokeColor=#82b366;" parent="1" vertex="1">
          <mxGeometry x="1076.1778409090907" y="890.9806504065041" width="68.94318181818181" height="34.47154471544715" as="geometry" />
        </mxCell>
        <mxCell id="imJ08O7aE8gu0QzwsTVR-193" value="places" style="ellipse;whiteSpace=wrap;html=1;fontSize=14;container=0;fillColor=#d5e8d4;strokeColor=#82b366;" parent="1" vertex="1">
          <mxGeometry x="1162.3568181818177" y="890.9806504065041" width="68.94318181818181" height="34.47154471544715" as="geometry" />
        </mxCell>
        <mxCell id="imJ08O7aE8gu0QzwsTVR-194" value="shows" style="ellipse;whiteSpace=wrap;html=1;fontSize=14;container=0;fillColor=#d5e8d4;strokeColor=#82b366;" parent="1" vertex="1">
          <mxGeometry x="989.998863636364" y="942.6879674796749" width="68.94318181818181" height="34.47154471544715" as="geometry" />
        </mxCell>
        <mxCell id="imJ08O7aE8gu0QzwsTVR-195" value="&lt;font style=&quot;font-size: 10px;&quot;&gt;avg&lt;/font&gt;&lt;div style=&quot;font-size: 10px;&quot;&gt;&lt;span style=&quot;background-color: initial; font-size: 10px;&quot;&gt;pos factor&lt;/span&gt;&lt;/div&gt;" style="ellipse;whiteSpace=wrap;html=1;fontSize=10;container=0;fillColor=#d5e8d4;strokeColor=#82b366;" parent="1" vertex="1">
          <mxGeometry x="1076.1778409090907" y="942.6879674796749" width="68.94318181818181" height="34.47154471544715" as="geometry" />
        </mxCell>
        <mxCell id="imJ08O7aE8gu0QzwsTVR-196" value="&lt;font style=&quot;font-size: 10px;&quot;&gt; ewma&lt;/font&gt;&lt;div style=&quot;font-size: 10px;&quot;&gt;&lt;font style=&quot;font-size: 10px;&quot;&gt;perf factor&lt;/font&gt;&lt;/div&gt;" style="ellipse;whiteSpace=wrap;html=1;fontSize=10;container=0;fillColor=#d5e8d4;strokeColor=#82b366;" parent="1" vertex="1">
          <mxGeometry x="1162.3568181818177" y="942.6879674796749" width="68.94318181818181" height="34.47154471544715" as="geometry" />
        </mxCell>
        <mxCell id="imJ08O7aE8gu0QzwsTVR-197" value="&lt;u&gt;jockey id&lt;/u&gt;" style="ellipse;whiteSpace=wrap;html=1;fontSize=14;container=0;fillColor=#d5e8d4;strokeColor=#82b366;" parent="1" vertex="1">
          <mxGeometry x="989.9978409090905" y="840.0006504065041" width="68.94318181818181" height="34.47154471544715" as="geometry" />
        </mxCell>
        <mxCell id="imJ08O7aE8gu0QzwsTVR-198" value="name" style="ellipse;whiteSpace=wrap;html=1;fontSize=14;container=0;fillColor=#d5e8d4;strokeColor=#82b366;" parent="1" vertex="1">
          <mxGeometry x="1076.1768181818177" y="840.0006504065041" width="68.94318181818181" height="34.47154471544715" as="geometry" />
        </mxCell>
        <mxCell id="imJ08O7aE8gu0QzwsTVR-199" value="avg position&lt;div style=&quot;font-size: 11px;&quot;&gt;&lt;span style=&quot;background-color: initial; font-size: 11px;&quot;&gt;gain&lt;/span&gt;&lt;/div&gt;" style="ellipse;whiteSpace=wrap;html=1;fontSize=11;container=0;fillColor=#d5e8d4;strokeColor=#82b366;" parent="1" vertex="1">
          <mxGeometry x="989.998863636364" y="994.4679674796748" width="68.94318181818181" height="34.47154471544715" as="geometry" />
        </mxCell>
        <mxCell id="imJ08O7aE8gu0QzwsTVR-200" value="avg late&lt;div style=&quot;font-size: 9px;&quot;&gt;position gain&lt;/div&gt;" style="ellipse;whiteSpace=wrap;html=1;fontSize=9;container=0;fillColor=#d5e8d4;strokeColor=#82b366;" parent="1" vertex="1">
          <mxGeometry x="1076.178863636364" y="994.4679674796748" width="68.94318181818181" height="34.47154471544715" as="geometry" />
        </mxCell>
        <mxCell id="imJ08O7aE8gu0QzwsTVR-201" value="avg last&lt;div style=&quot;font-size: 9px;&quot;&gt;position gain&lt;/div&gt;" style="ellipse;whiteSpace=wrap;html=1;fontSize=9;container=0;fillColor=#d5e8d4;strokeColor=#82b366;" parent="1" vertex="1">
          <mxGeometry x="1162.358863636364" y="994.4679674796748" width="68.94318181818181" height="34.47154471544715" as="geometry" />
        </mxCell>
        <mxCell id="imJ08O7aE8gu0QzwsTVR-202" value="&lt;font style=&quot;font-size: 13px;&quot;&gt;total races&lt;/font&gt;" style="ellipse;whiteSpace=wrap;html=1;fontSize=14;container=0;fillColor=#fff2cc;strokeColor=#d6b656;" parent="1" vertex="1">
          <mxGeometry x="928.9388636363641" y="106.18065040650401" width="68.94318181818181" height="34.47154471544715" as="geometry" />
        </mxCell>
        <mxCell id="imJ08O7aE8gu0QzwsTVR-203" value="wins" style="ellipse;whiteSpace=wrap;html=1;fontSize=14;container=0;fillColor=#fff2cc;strokeColor=#d6b656;" parent="1" vertex="1">
          <mxGeometry x="756.5778409090906" y="155.090650406504" width="68.94318181818181" height="34.47154471544715" as="geometry" />
        </mxCell>
        <mxCell id="imJ08O7aE8gu0QzwsTVR-204" value="places" style="ellipse;whiteSpace=wrap;html=1;fontSize=14;container=0;fillColor=#fff2cc;strokeColor=#d6b656;" parent="1" vertex="1">
          <mxGeometry x="842.7568181818176" y="155.090650406504" width="68.94318181818181" height="34.47154471544715" as="geometry" />
        </mxCell>
        <mxCell id="imJ08O7aE8gu0QzwsTVR-205" value="shows" style="ellipse;whiteSpace=wrap;html=1;fontSize=14;container=0;fillColor=#fff2cc;strokeColor=#d6b656;" parent="1" vertex="1">
          <mxGeometry x="928.9388636363641" y="155.08796747967477" width="68.94318181818181" height="34.47154471544715" as="geometry" />
        </mxCell>
        <mxCell id="imJ08O7aE8gu0QzwsTVR-206" value="&lt;font style=&quot;font-size: 10px;&quot;&gt;avg&lt;/font&gt;&lt;div style=&quot;font-size: 10px;&quot;&gt;&lt;span style=&quot;background-color: initial; font-size: 10px;&quot;&gt;pos factor&lt;/span&gt;&lt;/div&gt;" style="ellipse;whiteSpace=wrap;html=1;fontSize=10;container=0;fillColor=#fff2cc;strokeColor=#d6b656;" parent="1" vertex="1">
          <mxGeometry x="756.5778409090906" y="206.79796747967478" width="68.94318181818181" height="34.47154471544715" as="geometry" />
        </mxCell>
        <mxCell id="imJ08O7aE8gu0QzwsTVR-207" value="&lt;font style=&quot;font-size: 10px;&quot;&gt; ewma&lt;/font&gt;&lt;div style=&quot;font-size: 10px;&quot;&gt;&lt;font style=&quot;font-size: 10px;&quot;&gt;perf factor&lt;/font&gt;&lt;/div&gt;" style="ellipse;whiteSpace=wrap;html=1;fontSize=10;container=0;fillColor=#fff2cc;strokeColor=#d6b656;" parent="1" vertex="1">
          <mxGeometry x="842.7568181818176" y="206.79796747967478" width="68.94318181818181" height="34.47154471544715" as="geometry" />
        </mxCell>
        <mxCell id="imJ08O7aE8gu0QzwsTVR-208" value="&lt;u&gt;trainer id&lt;/u&gt;" style="ellipse;whiteSpace=wrap;html=1;fontSize=14;container=0;fillColor=#fff2cc;strokeColor=#d6b656;" parent="1" vertex="1">
          <mxGeometry x="842.7578409090904" y="60.27065040650406" width="68.94318181818181" height="34.47154471544715" as="geometry" />
        </mxCell>
        <mxCell id="imJ08O7aE8gu0QzwsTVR-209" value="name" style="ellipse;whiteSpace=wrap;html=1;fontSize=14;container=0;fillColor=#fff2cc;strokeColor=#d6b656;" parent="1" vertex="1">
          <mxGeometry x="756.5768181818175" y="106.18065040650406" width="68.94318181818181" height="34.47154471544715" as="geometry" />
        </mxCell>
        <mxCell id="imJ08O7aE8gu0QzwsTVR-210" value=" ewma dirt&lt;div&gt;perf factor&lt;/div&gt;" style="ellipse;whiteSpace=wrap;html=1;fontSize=11;container=0;fillColor=#fff2cc;strokeColor=#d6b656;" parent="1" vertex="1">
          <mxGeometry x="928.9388636363641" y="206.79796747967472" width="68.94318181818181" height="34.47154471544715" as="geometry" />
        </mxCell>
        <mxCell id="imJ08O7aE8gu0QzwsTVR-211" value=" ewma turf&lt;div&gt;perf factor&lt;/div&gt;" style="ellipse;whiteSpace=wrap;html=1;fontSize=9;container=0;fillColor=#fff2cc;strokeColor=#d6b656;" parent="1" vertex="1">
          <mxGeometry x="756.5788636363638" y="258.5779674796747" width="68.94318181818181" height="34.47154471544715" as="geometry" />
        </mxCell>
        <mxCell id="imJ08O7aE8gu0QzwsTVR-212" value=" ewma AWT&lt;div&gt;perf factor&lt;/div&gt;" style="ellipse;whiteSpace=wrap;html=1;fontSize=9;container=0;fillColor=#fff2cc;strokeColor=#d6b656;" parent="1" vertex="1">
          <mxGeometry x="842.7588636363639" y="258.5779674796747" width="68.94318181818181" height="34.47154471544715" as="geometry" />
        </mxCell>
        <mxCell id="imJ08O7aE8gu0QzwsTVR-213" value="&lt;font style=&quot;font-size: 13px;&quot;&gt;total races&lt;/font&gt;" style="ellipse;whiteSpace=wrap;html=1;fontSize=14;container=0;fillColor=#bac8d3;strokeColor=#23445d;" parent="1" vertex="1">
          <mxGeometry x="373.2988636363642" y="591.8706504065042" width="68.94318181818181" height="34.47154471544715" as="geometry" />
        </mxCell>
        <mxCell id="imJ08O7aE8gu0QzwsTVR-214" value="wins" style="ellipse;whiteSpace=wrap;html=1;fontSize=14;container=0;fillColor=#bac8d3;strokeColor=#23445d;" parent="1" vertex="1">
          <mxGeometry x="459.4778409090908" y="591.8706504065042" width="68.94318181818181" height="34.47154471544715" as="geometry" />
        </mxCell>
        <mxCell id="imJ08O7aE8gu0QzwsTVR-215" value="places" style="ellipse;whiteSpace=wrap;html=1;fontSize=14;container=0;fillColor=#bac8d3;strokeColor=#23445d;" parent="1" vertex="1">
          <mxGeometry x="545.6568181818178" y="591.8706504065042" width="68.94318181818181" height="34.47154471544715" as="geometry" />
        </mxCell>
        <mxCell id="imJ08O7aE8gu0QzwsTVR-216" value="shows" style="ellipse;whiteSpace=wrap;html=1;fontSize=14;container=0;fillColor=#bac8d3;strokeColor=#23445d;" parent="1" vertex="1">
          <mxGeometry x="373.2988636363642" y="643.577967479675" width="68.94318181818181" height="34.47154471544715" as="geometry" />
        </mxCell>
        <mxCell id="imJ08O7aE8gu0QzwsTVR-217" value="&lt;font style=&quot;font-size: 10px;&quot;&gt;avg&lt;/font&gt;&lt;div style=&quot;font-size: 10px;&quot;&gt;&lt;span style=&quot;background-color: initial; font-size: 10px;&quot;&gt;pos factor&lt;/span&gt;&lt;/div&gt;" style="ellipse;whiteSpace=wrap;html=1;fontSize=10;container=0;fillColor=#bac8d3;strokeColor=#23445d;" parent="1" vertex="1">
          <mxGeometry x="459.4778409090908" y="643.577967479675" width="68.94318181818181" height="34.47154471544715" as="geometry" />
        </mxCell>
        <mxCell id="imJ08O7aE8gu0QzwsTVR-218" value="&lt;font style=&quot;font-size: 10px;&quot;&gt; ewma&lt;/font&gt;&lt;div style=&quot;font-size: 10px;&quot;&gt;&lt;font style=&quot;font-size: 10px;&quot;&gt;perf factor&lt;/font&gt;&lt;/div&gt;" style="ellipse;whiteSpace=wrap;html=1;fontSize=10;container=0;fillColor=#bac8d3;strokeColor=#23445d;" parent="1" vertex="1">
          <mxGeometry x="545.6568181818178" y="643.577967479675" width="68.94318181818181" height="34.47154471544715" as="geometry" />
        </mxCell>
        <mxCell id="imJ08O7aE8gu0QzwsTVR-219" value="&lt;u&gt;trainer id&lt;/u&gt;" style="ellipse;whiteSpace=wrap;html=1;fontSize=14;container=0;fillColor=#bac8d3;strokeColor=#23445d;" parent="1" vertex="1">
          <mxGeometry x="416.38784090909064" y="537.0706504065042" width="68.94318181818181" height="34.47154471544715" as="geometry" />
        </mxCell>
        <mxCell id="imJ08O7aE8gu0QzwsTVR-220" value="&lt;u&gt;horse id&lt;/u&gt;" style="ellipse;whiteSpace=wrap;html=1;fontSize=14;container=0;fillColor=#bac8d3;strokeColor=#23445d;" parent="1" vertex="1">
          <mxGeometry x="502.56681818181767" y="537.0706504065042" width="68.94318181818181" height="34.47154471544715" as="geometry" />
        </mxCell>
        <mxCell id="imJ08O7aE8gu0QzwsTVR-221" value="&lt;font style=&quot;font-size: 13px;&quot;&gt;total races&lt;/font&gt;" style="ellipse;whiteSpace=wrap;html=1;fontSize=14;container=0;fillColor=#E0E0E0;strokeColor=#56517e;" parent="1" vertex="1">
          <mxGeometry x="487.1488636363641" y="894.8006504065041" width="68.94318181818181" height="34.47154471544715" as="geometry" />
        </mxCell>
        <mxCell id="imJ08O7aE8gu0QzwsTVR-222" value="wins" style="ellipse;whiteSpace=wrap;html=1;fontSize=14;container=0;fillColor=#E0E0E0;strokeColor=#56517e;" parent="1" vertex="1">
          <mxGeometry x="573.3278409090907" y="894.8006504065041" width="68.94318181818181" height="34.47154471544715" as="geometry" />
        </mxCell>
        <mxCell id="imJ08O7aE8gu0QzwsTVR-223" value="places" style="ellipse;whiteSpace=wrap;html=1;fontSize=14;container=0;fillColor=#E0E0E0;strokeColor=#56517e;" parent="1" vertex="1">
          <mxGeometry x="659.5068181818177" y="894.8006504065041" width="68.94318181818181" height="34.47154471544715" as="geometry" />
        </mxCell>
        <mxCell id="imJ08O7aE8gu0QzwsTVR-224" value="shows" style="ellipse;whiteSpace=wrap;html=1;fontSize=14;container=0;fillColor=#E0E0E0;strokeColor=#56517e;" parent="1" vertex="1">
          <mxGeometry x="487.1488636363641" y="946.5079674796748" width="68.94318181818181" height="34.47154471544715" as="geometry" />
        </mxCell>
        <mxCell id="imJ08O7aE8gu0QzwsTVR-225" value="&lt;font style=&quot;font-size: 10px;&quot;&gt;avg&lt;/font&gt;&lt;div style=&quot;font-size: 10px;&quot;&gt;&lt;span style=&quot;background-color: initial; font-size: 10px;&quot;&gt;pos factor&lt;/span&gt;&lt;/div&gt;" style="ellipse;whiteSpace=wrap;html=1;fontSize=10;container=0;fillColor=#E0E0E0;strokeColor=#56517e;" parent="1" vertex="1">
          <mxGeometry x="573.3278409090907" y="946.5079674796748" width="68.94318181818181" height="34.47154471544715" as="geometry" />
        </mxCell>
        <mxCell id="imJ08O7aE8gu0QzwsTVR-226" value="&lt;font style=&quot;font-size: 10px;&quot;&gt; ewma&lt;/font&gt;&lt;div style=&quot;font-size: 10px;&quot;&gt;&lt;font style=&quot;font-size: 10px;&quot;&gt;perf factor&lt;/font&gt;&lt;/div&gt;" style="ellipse;whiteSpace=wrap;html=1;fontSize=10;container=0;fillColor=#E0E0E0;strokeColor=#56517e;" parent="1" vertex="1">
          <mxGeometry x="659.5068181818177" y="946.5079674796748" width="68.94318181818181" height="34.47154471544715" as="geometry" />
        </mxCell>
        <mxCell id="imJ08O7aE8gu0QzwsTVR-227" value="&lt;u&gt;jockey id&lt;/u&gt;" style="ellipse;whiteSpace=wrap;html=1;fontSize=14;container=0;fillColor=#E0E0E0;strokeColor=#56517e;" parent="1" vertex="1">
          <mxGeometry x="530.2378409090906" y="840.0006504065042" width="68.94318181818181" height="34.47154471544715" as="geometry" />
        </mxCell>
        <mxCell id="imJ08O7aE8gu0QzwsTVR-228" value="&lt;u&gt;horse id&lt;/u&gt;" style="ellipse;whiteSpace=wrap;html=1;fontSize=14;container=0;fillColor=#E0E0E0;strokeColor=#56517e;" parent="1" vertex="1">
          <mxGeometry x="616.4168181818176" y="840.0006504065042" width="68.94318181818181" height="34.47154471544715" as="geometry" />
        </mxCell>
        <mxCell id="imJ08O7aE8gu0QzwsTVR-229" value="&lt;font style=&quot;font-size: 13px;&quot;&gt;total races&lt;/font&gt;" style="ellipse;whiteSpace=wrap;html=1;fontSize=14;container=0;fillColor=#E0FFFF;strokeColor=#56517E;" parent="1" vertex="1">
          <mxGeometry x="332.0288636363641" y="149.2606504065041" width="68.94318181818181" height="34.47154471544715" as="geometry" />
        </mxCell>
        <mxCell id="imJ08O7aE8gu0QzwsTVR-230" value="wins" style="ellipse;whiteSpace=wrap;html=1;fontSize=14;container=0;fillColor=#E0FFFF;strokeColor=#56517E;" parent="1" vertex="1">
          <mxGeometry x="418.2078409090907" y="149.2606504065041" width="68.94318181818181" height="34.47154471544715" as="geometry" />
        </mxCell>
        <mxCell id="imJ08O7aE8gu0QzwsTVR-231" value="places" style="ellipse;whiteSpace=wrap;html=1;fontSize=14;container=0;fillColor=#E0FFFF;strokeColor=#56517E;" parent="1" vertex="1">
          <mxGeometry x="504.3868181818177" y="149.2606504065041" width="68.94318181818181" height="34.47154471544715" as="geometry" />
        </mxCell>
        <mxCell id="imJ08O7aE8gu0QzwsTVR-232" value="shows" style="ellipse;whiteSpace=wrap;html=1;fontSize=14;container=0;fillColor=#E0FFFF;strokeColor=#56517E;" parent="1" vertex="1">
          <mxGeometry x="332.0288636363641" y="200.96796747967488" width="68.94318181818181" height="34.47154471544715" as="geometry" />
        </mxCell>
        <mxCell id="imJ08O7aE8gu0QzwsTVR-233" value="&lt;font style=&quot;font-size: 10px;&quot;&gt;avg&lt;/font&gt;&lt;div style=&quot;font-size: 10px;&quot;&gt;&lt;span style=&quot;background-color: initial; font-size: 10px;&quot;&gt;pos factor&lt;/span&gt;&lt;/div&gt;" style="ellipse;whiteSpace=wrap;html=1;fontSize=10;container=0;fillColor=#E0FFFF;strokeColor=#56517E;" parent="1" vertex="1">
          <mxGeometry x="418.2078409090907" y="200.96796747967488" width="68.94318181818181" height="34.47154471544715" as="geometry" />
        </mxCell>
        <mxCell id="imJ08O7aE8gu0QzwsTVR-234" value="&lt;font style=&quot;font-size: 10px;&quot;&gt; ewma&lt;/font&gt;&lt;div style=&quot;font-size: 10px;&quot;&gt;&lt;font style=&quot;font-size: 10px;&quot;&gt;perf factor&lt;/font&gt;&lt;/div&gt;" style="ellipse;whiteSpace=wrap;html=1;fontSize=10;container=0;fillColor=#E0FFFF;strokeColor=#56517E;" parent="1" vertex="1">
          <mxGeometry x="504.3868181818177" y="200.96796747967488" width="68.94318181818181" height="34.47154471544715" as="geometry" />
        </mxCell>
        <mxCell id="imJ08O7aE8gu0QzwsTVR-235" value="&lt;u&gt;trainer id&lt;/u&gt;" style="ellipse;whiteSpace=wrap;html=1;fontSize=14;container=0;fillColor=#E0FFFF;strokeColor=#56517E;" parent="1" vertex="1">
          <mxGeometry x="332.0278409090905" y="94.46065040650417" width="68.94318181818181" height="34.47154471544715" as="geometry" />
        </mxCell>
        <mxCell id="imJ08O7aE8gu0QzwsTVR-236" value="&lt;u&gt;track id&lt;/u&gt;" style="ellipse;whiteSpace=wrap;html=1;fontSize=14;container=0;fillColor=#E0FFFF;strokeColor=#56517E;" parent="1" vertex="1">
          <mxGeometry x="418.20681818181754" y="94.46065040650417" width="68.94318181818181" height="34.47154471544715" as="geometry" />
        </mxCell>
        <mxCell id="imJ08O7aE8gu0QzwsTVR-237" value="&lt;font style=&quot;font-size: 13px;&quot;&gt;total races&lt;/font&gt;" style="ellipse;whiteSpace=wrap;html=1;fontSize=14;container=0;fillColor=#FFCCFF;strokeColor=#990099;" parent="1" vertex="1">
          <mxGeometry x="-230.00113636363585" y="574.800650406504" width="68.94318181818181" height="34.47154471544715" as="geometry" />
        </mxCell>
        <mxCell id="imJ08O7aE8gu0QzwsTVR-238" value="wins" style="ellipse;whiteSpace=wrap;html=1;fontSize=14;container=0;fillColor=#FFCCFF;strokeColor=#990099;" parent="1" vertex="1">
          <mxGeometry x="-143.82215909090928" y="574.800650406504" width="68.94318181818181" height="34.47154471544715" as="geometry" />
        </mxCell>
        <mxCell id="imJ08O7aE8gu0QzwsTVR-239" value="places" style="ellipse;whiteSpace=wrap;html=1;fontSize=14;container=0;fillColor=#FFCCFF;strokeColor=#990099;" parent="1" vertex="1">
          <mxGeometry x="-57.643181818182256" y="574.800650406504" width="68.94318181818181" height="34.47154471544715" as="geometry" />
        </mxCell>
        <mxCell id="imJ08O7aE8gu0QzwsTVR-240" value="shows" style="ellipse;whiteSpace=wrap;html=1;fontSize=14;container=0;fillColor=#FFCCFF;strokeColor=#990099;" parent="1" vertex="1">
          <mxGeometry x="-230.00113636363585" y="626.5079674796748" width="68.94318181818181" height="34.47154471544715" as="geometry" />
        </mxCell>
        <mxCell id="imJ08O7aE8gu0QzwsTVR-241" value="&lt;font style=&quot;font-size: 10px;&quot;&gt;avg&lt;/font&gt;&lt;div style=&quot;font-size: 10px;&quot;&gt;&lt;span style=&quot;background-color: initial; font-size: 10px;&quot;&gt;pos factor&lt;/span&gt;&lt;/div&gt;" style="ellipse;whiteSpace=wrap;html=1;fontSize=10;container=0;fillColor=#FFCCFF;strokeColor=#990099;" parent="1" vertex="1">
          <mxGeometry x="-143.82215909090928" y="626.5079674796748" width="68.94318181818181" height="34.47154471544715" as="geometry" />
        </mxCell>
        <mxCell id="imJ08O7aE8gu0QzwsTVR-242" value="&lt;font style=&quot;font-size: 10px;&quot;&gt; ewma&lt;/font&gt;&lt;div style=&quot;font-size: 10px;&quot;&gt;&lt;font style=&quot;font-size: 10px;&quot;&gt;perf factor&lt;/font&gt;&lt;/div&gt;" style="ellipse;whiteSpace=wrap;html=1;fontSize=10;container=0;fillColor=#FFCCFF;strokeColor=#990099;" parent="1" vertex="1">
          <mxGeometry x="-57.643181818182256" y="626.5079674796748" width="68.94318181818181" height="34.47154471544715" as="geometry" />
        </mxCell>
        <mxCell id="imJ08O7aE8gu0QzwsTVR-243" value="&lt;u&gt;horse id&lt;/u&gt;" style="ellipse;whiteSpace=wrap;html=1;fontSize=14;container=0;fillColor=#FFCCFF;strokeColor=#990099;" parent="1" vertex="1">
          <mxGeometry x="-230.00215909090943" y="523.0906504065041" width="68.94318181818181" height="34.47154471544715" as="geometry" />
        </mxCell>
        <mxCell id="imJ08O7aE8gu0QzwsTVR-244" value="&lt;u&gt;track id&lt;/u&gt;" style="ellipse;whiteSpace=wrap;html=1;fontSize=14;container=0;fillColor=#FFCCFF;strokeColor=#990099;" parent="1" vertex="1">
          <mxGeometry x="-143.8231818181824" y="523.0906504065041" width="68.94318181818181" height="34.47154471544715" as="geometry" />
        </mxCell>
        <mxCell id="imJ08O7aE8gu0QzwsTVR-251" value="&lt;u&gt;horse id&lt;/u&gt;" style="ellipse;whiteSpace=wrap;html=1;fontSize=14;container=0;fillColor=#dae8fc;strokeColor=#6c8ebf;" parent="1" vertex="1">
          <mxGeometry x="10.324545454545358" y="840.1795934959349" width="68.94318181818181" height="34.47154471544715" as="geometry" />
        </mxCell>
        <mxCell id="imJ08O7aE8gu0QzwsTVR-252" value="name" style="ellipse;whiteSpace=wrap;html=1;fontSize=14;container=0;fillColor=#dae8fc;strokeColor=#6c8ebf;" parent="1" vertex="1">
          <mxGeometry x="97.96659090909088" y="840.1769105691056" width="68.94318181818181" height="34.47154471544715" as="geometry" />
        </mxCell>
        <mxCell id="imJ08O7aE8gu0QzwsTVR-253" value="ewma&lt;br&gt;&lt;div style=&quot;font-size: 10px;&quot;&gt;&lt;span style=&quot;background-color: initial; font-size: 10px;&quot;&gt;pos factor&lt;/span&gt;&lt;/div&gt;" style="ellipse;whiteSpace=wrap;html=1;fontSize=10;container=0;fillColor=#dae8fc;strokeColor=#6c8ebf;" parent="1" vertex="1">
          <mxGeometry x="228.20784090909072" y="894.7979674796748" width="68.94318181818181" height="34.47154471544715" as="geometry" />
        </mxCell>
        <mxCell id="imJ08O7aE8gu0QzwsTVR-256" value="ewma position&lt;div style=&quot;font-size: 11px;&quot;&gt;&lt;span style=&quot;background-color: initial; font-size: 11px;&quot;&gt;gain&lt;/span&gt;&lt;/div&gt;" style="ellipse;whiteSpace=wrap;html=1;fontSize=11;container=0;fillColor=#dae8fc;strokeColor=#6c8ebf;" parent="1" vertex="1">
          <mxGeometry x="314.3888636363641" y="894.7979674796748" width="68.94318181818181" height="34.47154471544715" as="geometry" />
        </mxCell>
        <mxCell id="imJ08O7aE8gu0QzwsTVR-258" value="ewma late&lt;div style=&quot;font-size: 9px;&quot;&gt;position gain&lt;/div&gt;" style="ellipse;whiteSpace=wrap;html=1;fontSize=9;container=0;fillColor=#dae8fc;strokeColor=#6c8ebf;" parent="1" vertex="1">
          <mxGeometry x="-117.97113636363608" y="946.5079674796748" width="68.94318181818181" height="34.47154471544715" as="geometry" />
        </mxCell>
        <mxCell id="imJ08O7aE8gu0QzwsTVR-259" value="ewma last&lt;div style=&quot;font-size: 9px;&quot;&gt;position gain&lt;/div&gt;" style="ellipse;whiteSpace=wrap;html=1;fontSize=9;container=0;fillColor=#dae8fc;strokeColor=#6c8ebf;" parent="1" vertex="1">
          <mxGeometry x="-31.791136363636014" y="946.5079674796748" width="68.94318181818181" height="34.47154471544715" as="geometry" />
        </mxCell>
        <mxCell id="imJ08O7aE8gu0QzwsTVR-260" value="&lt;font style=&quot;font-size: 10px;&quot;&gt; ewma&lt;/font&gt;&lt;div style=&quot;font-size: 10px;&quot;&gt;&lt;font style=&quot;font-size: 10px;&quot;&gt;perf factor&lt;/font&gt;&lt;/div&gt;" style="ellipse;whiteSpace=wrap;html=1;fontSize=10;container=0;fillColor=#dae8fc;strokeColor=#6c8ebf;" parent="1" vertex="1">
          <mxGeometry x="55.846818181817696" y="946.5079674796748" width="68.94318181818181" height="34.47154471544715" as="geometry" />
        </mxCell>
        <mxCell id="imJ08O7aE8gu0QzwsTVR-262" value="&lt;font style=&quot;font-size: 10px;&quot;&gt;recent&lt;/font&gt;&lt;div style=&quot;font-size: 10px;&quot;&gt;&lt;font style=&quot;font-size: 10px;&quot;&gt;perf factor&lt;/font&gt;&lt;/div&gt;" style="ellipse;whiteSpace=wrap;html=1;fontSize=10;container=0;fillColor=#dae8fc;strokeColor=#6c8ebf;" parent="1" vertex="1">
          <mxGeometry x="142.0268181818177" y="946.5079674796748" width="68.94318181818181" height="34.47154471544715" as="geometry" />
        </mxCell>
        <mxCell id="imJ08O7aE8gu0QzwsTVR-263" value=" ewma dirt&lt;div&gt;perf factor&lt;/div&gt;" style="ellipse;whiteSpace=wrap;html=1;fontSize=11;container=0;fillColor=#dae8fc;strokeColor=#6c8ebf;" parent="1" vertex="1">
          <mxGeometry x="228.20886363636413" y="946.5079674796747" width="68.94318181818181" height="34.47154471544715" as="geometry" />
        </mxCell>
        <mxCell id="imJ08O7aE8gu0QzwsTVR-264" value=" ewma turf&lt;div&gt;perf factor&lt;/div&gt;" style="ellipse;whiteSpace=wrap;html=1;fontSize=9;container=0;fillColor=#dae8fc;strokeColor=#6c8ebf;" parent="1" vertex="1">
          <mxGeometry x="314.38886363636396" y="946.5079674796747" width="68.94318181818181" height="34.47154471544715" as="geometry" />
        </mxCell>
        <mxCell id="imJ08O7aE8gu0QzwsTVR-265" value=" ewma AWT&lt;div&gt;perf factor&lt;/div&gt;" style="ellipse;whiteSpace=wrap;html=1;fontSize=9;container=0;fillColor=#dae8fc;strokeColor=#6c8ebf;" parent="1" vertex="1">
          <mxGeometry x="55.848863636364" y="999.9979674796747" width="68.94318181818181" height="34.47154471544715" as="geometry" />
        </mxCell>
        <mxCell id="imJ08O7aE8gu0QzwsTVR-266" value="distance&lt;div style=&quot;font-size: 12px;&quot;&gt;factor&lt;/div&gt;" style="ellipse;whiteSpace=wrap;html=1;fontSize=12;container=0;fillColor=#dae8fc;strokeColor=#6c8ebf;" parent="1" vertex="1">
          <mxGeometry x="142.028863636364" y="999.9979674796747" width="68.94318181818181" height="34.47154471544715" as="geometry" />
        </mxCell>
        <mxCell id="imJ08O7aE8gu0QzwsTVR-267" value="distance&lt;div&gt;factor&lt;/div&gt;" style="ellipse;whiteSpace=wrap;html=1;fontSize=9;container=0;fillColor=#fff2cc;strokeColor=#d6b656;" parent="1" vertex="1">
          <mxGeometry x="928.938863636364" y="258.5779674796747" width="68.94318181818181" height="34.47154471544715" as="geometry" />
        </mxCell>
        <mxCell id="imJ08O7aE8gu0QzwsTVR-270" value="&lt;u&gt;track id&lt;/u&gt;" style="ellipse;whiteSpace=wrap;html=1;fontSize=14;container=0;fillColor=#CCFFE6;strokeColor=#66FFB3;" parent="1" vertex="1">
          <mxGeometry x="8.537840909090491" y="206.80065040650405" width="68.94318181818181" height="34.47154471544715" as="geometry" />
        </mxCell>
        <mxCell id="imJ08O7aE8gu0QzwsTVR-271" value="name" style="ellipse;whiteSpace=wrap;html=1;fontSize=14;container=0;fillColor=#CCFFE6;strokeColor=#66FFB3;" parent="1" vertex="1">
          <mxGeometry x="94.71681818181753" y="206.80065040650405" width="68.94318181818181" height="34.47154471544715" as="geometry" />
        </mxCell>
        <mxCell id="imJ08O7aE8gu0QzwsTVR-277" value="date" style="ellipse;whiteSpace=wrap;html=1;fontSize=13;container=0;fillColor=#C1CEE8;strokeColor=#3F5AB3;" parent="1" vertex="1">
          <mxGeometry x="-722.0234090909092" y="114.78959349593507" width="68.94318181818181" height="34.47154471544715" as="geometry" />
        </mxCell>
        <mxCell id="imJ08O7aE8gu0QzwsTVR-278" value="race type" style="ellipse;whiteSpace=wrap;html=1;fontSize=14;container=0;fillColor=#C1CEE8;strokeColor=#3F5AB3;" parent="1" vertex="1">
          <mxGeometry x="-635.844431818182" y="114.78959349593507" width="68.94318181818181" height="34.47154471544715" as="geometry" />
        </mxCell>
        <mxCell id="imJ08O7aE8gu0QzwsTVR-279" value="surface" style="ellipse;whiteSpace=wrap;html=1;fontSize=14;container=0;fillColor=#C1CEE8;strokeColor=#3F5AB3;" parent="1" vertex="1">
          <mxGeometry x="-549.6654545454547" y="114.78959349593507" width="68.94318181818181" height="34.47154471544715" as="geometry" />
        </mxCell>
        <mxCell id="imJ08O7aE8gu0QzwsTVR-280" value="weather" style="ellipse;whiteSpace=wrap;html=1;fontSize=14;container=0;fillColor=#C1CEE8;strokeColor=#3F5AB3;" parent="1" vertex="1">
          <mxGeometry x="-462.02340909090924" y="114.7869105691058" width="68.94318181818181" height="34.47154471544715" as="geometry" />
        </mxCell>
        <mxCell id="imJ08O7aE8gu0QzwsTVR-281" value="&lt;u&gt;race id&lt;/u&gt;" style="ellipse;whiteSpace=wrap;html=1;fontSize=14;container=0;fillColor=#C1CEE8;strokeColor=#3F5AB3;" parent="1" vertex="1">
          <mxGeometry x="-636.5754545454547" y="60.269593495935" width="68.94318181818181" height="34.47154471544715" as="geometry" />
        </mxCell>
        <mxCell id="imJ08O7aE8gu0QzwsTVR-282" value="&lt;span&gt;track id&lt;/span&gt;" style="ellipse;whiteSpace=wrap;html=1;fontSize=14;container=0;fillColor=#C1CEE8;strokeColor=#3F5AB3;fontStyle=0" parent="1" vertex="1">
          <mxGeometry x="-548.9334090909092" y="60.26691056910573" width="68.94318181818181" height="34.47154471544715" as="geometry" />
        </mxCell>
        <mxCell id="imJ08O7aE8gu0QzwsTVR-283" value="&lt;font style=&quot;font-size: 11px;&quot;&gt;temperature&lt;/font&gt;" style="ellipse;whiteSpace=wrap;html=1;fontSize=11;container=0;fillColor=#C1CEE8;strokeColor=#3F5AB3;" parent="1" vertex="1">
          <mxGeometry x="-375.84215909090926" y="114.78796747967479" width="68.94318181818181" height="34.47154471544715" as="geometry" />
        </mxCell>
        <mxCell id="imJ08O7aE8gu0QzwsTVR-284" value="&lt;font style=&quot;font-size: 13px;&quot;&gt;race num&lt;/font&gt;" style="ellipse;whiteSpace=wrap;html=1;fontSize=10;container=0;fillColor=#C1CEE8;strokeColor=#3F5AB3;" parent="1" vertex="1">
          <mxGeometry x="-808.9321590909092" y="114.7879674796748" width="68.94318181818181" height="34.47154471544715" as="geometry" />
        </mxCell>
        <mxCell id="imJ08O7aE8gu0QzwsTVR-285" value="&lt;font style=&quot;font-size: 15px;&quot;&gt;distance&lt;/font&gt;" style="ellipse;whiteSpace=wrap;html=1;fontSize=11;container=0;fillColor=#C1CEE8;strokeColor=#3F5AB3;" parent="1" vertex="1">
          <mxGeometry x="-638.0511363636358" y="269.91796747967487" width="68.94318181818181" height="34.47154471544715" as="geometry" />
        </mxCell>
        <mxCell id="imJ08O7aE8gu0QzwsTVR-286" value="&lt;font style=&quot;font-size: 14px;&quot;&gt;final time&lt;/font&gt;" style="ellipse;whiteSpace=wrap;html=1;fontSize=9;container=0;fillColor=#C1CEE8;strokeColor=#3F5AB3;" parent="1" vertex="1">
          <mxGeometry x="-724.221136363636" y="269.9179674796748" width="68.94318181818181" height="34.47154471544715" as="geometry" />
        </mxCell>
        <mxCell id="imJ08O7aE8gu0QzwsTVR-287" value="&lt;span style=&quot;font-size: 13px;&quot;&gt;frac time 3&lt;/span&gt;" style="ellipse;whiteSpace=wrap;html=1;fontSize=9;container=0;fillColor=#C1CEE8;strokeColor=#3F5AB3;" parent="1" vertex="1">
          <mxGeometry x="-636.5711363636361" y="166.77796747967483" width="68.94318181818181" height="34.47154471544715" as="geometry" />
        </mxCell>
        <mxCell id="imJ08O7aE8gu0QzwsTVR-288" value="&lt;span style=&quot;font-size: 13px;&quot;&gt;frac time 4&lt;/span&gt;" style="ellipse;whiteSpace=wrap;html=1;fontSize=9;container=0;fillColor=#C1CEE8;strokeColor=#3F5AB3;" parent="1" vertex="1">
          <mxGeometry x="-550.3911363636361" y="166.77796747967483" width="68.94318181818181" height="34.47154471544715" as="geometry" />
        </mxCell>
        <mxCell id="imJ08O7aE8gu0QzwsTVR-289" value="&lt;span style=&quot;font-size: 13px;&quot;&gt;frac time 5&lt;/span&gt;" style="ellipse;whiteSpace=wrap;html=1;fontSize=10;container=0;fillColor=#C1CEE8;strokeColor=#3F5AB3;" parent="1" vertex="1">
          <mxGeometry x="-462.7531818181823" y="166.77796747967483" width="68.94318181818181" height="34.47154471544715" as="geometry" />
        </mxCell>
        <mxCell id="imJ08O7aE8gu0QzwsTVR-290" value="&lt;span style=&quot;font-size: 13px;&quot;&gt;frac time 6&lt;/span&gt;" style="ellipse;whiteSpace=wrap;html=1;fontSize=10;container=0;fillColor=#C1CEE8;strokeColor=#3F5AB3;" parent="1" vertex="1">
          <mxGeometry x="-376.57318181818226" y="166.77796747967483" width="68.94318181818181" height="34.47154471544715" as="geometry" />
        </mxCell>
        <mxCell id="imJ08O7aE8gu0QzwsTVR-291" value="&lt;font style=&quot;font-size: 13px;&quot;&gt;frac time 1&lt;/font&gt;" style="ellipse;whiteSpace=wrap;html=1;fontSize=11;container=0;fillColor=#C1CEE8;strokeColor=#3F5AB3;" parent="1" vertex="1">
          <mxGeometry x="-808.9311363636359" y="166.77796747967471" width="68.94318181818181" height="34.47154471544715" as="geometry" />
        </mxCell>
        <mxCell id="imJ08O7aE8gu0QzwsTVR-292" value="&lt;font style=&quot;font-size: 13px;&quot;&gt;frac time 2&lt;/font&gt;" style="ellipse;whiteSpace=wrap;html=1;fontSize=9;container=0;fillColor=#C1CEE8;strokeColor=#3F5AB3;" parent="1" vertex="1">
          <mxGeometry x="-722.7511363636361" y="166.77796747967471" width="68.94318181818181" height="34.47154471544715" as="geometry" />
        </mxCell>
        <mxCell id="imJ08O7aE8gu0QzwsTVR-295" value="&lt;span style=&quot;font-size: 13px;&quot;&gt;split&lt;/span&gt;&lt;span style=&quot;font-size: 13px;&quot;&gt;&amp;nbsp;time 3&lt;/span&gt;" style="ellipse;whiteSpace=wrap;html=1;fontSize=9;container=0;fillColor=#C1CEE8;strokeColor=#3F5AB3;" parent="1" vertex="1">
          <mxGeometry x="-636.5811363636361" y="218.13796747967484" width="68.94318181818181" height="34.47154471544715" as="geometry" />
        </mxCell>
        <mxCell id="imJ08O7aE8gu0QzwsTVR-296" value="&lt;span style=&quot;font-size: 13px;&quot;&gt;split&amp;nbsp;&lt;/span&gt;&lt;span style=&quot;font-size: 13px;&quot;&gt;time 4&lt;/span&gt;" style="ellipse;whiteSpace=wrap;html=1;fontSize=9;container=0;fillColor=#C1CEE8;strokeColor=#3F5AB3;" parent="1" vertex="1">
          <mxGeometry x="-550.401136363636" y="218.13796747967484" width="68.94318181818181" height="34.47154471544715" as="geometry" />
        </mxCell>
        <mxCell id="imJ08O7aE8gu0QzwsTVR-297" value="&lt;span style=&quot;font-size: 13px;&quot;&gt;split&amp;nbsp;&lt;/span&gt;&lt;span style=&quot;font-size: 13px;&quot;&gt;time 5&lt;/span&gt;" style="ellipse;whiteSpace=wrap;html=1;fontSize=10;container=0;fillColor=#C1CEE8;strokeColor=#3F5AB3;" parent="1" vertex="1">
          <mxGeometry x="-462.7631818181823" y="218.13796747967484" width="68.94318181818181" height="34.47154471544715" as="geometry" />
        </mxCell>
        <mxCell id="imJ08O7aE8gu0QzwsTVR-298" value="&lt;span style=&quot;font-size: 13px;&quot;&gt;split&lt;/span&gt;&lt;span style=&quot;font-size: 13px;&quot;&gt;&amp;nbsp;time 6&lt;/span&gt;" style="ellipse;whiteSpace=wrap;html=1;fontSize=10;container=0;fillColor=#C1CEE8;strokeColor=#3F5AB3;" parent="1" vertex="1">
          <mxGeometry x="-376.58318181818225" y="218.13796747967484" width="68.94318181818181" height="34.47154471544715" as="geometry" />
        </mxCell>
        <mxCell id="imJ08O7aE8gu0QzwsTVR-301" value="consist of" style="rhombus;whiteSpace=wrap;html=1;container=0;fontSize=14;fillColor=#E6FFCC;strokeColor=#009900;perimeterSpacing=0;" parent="1" vertex="1">
          <mxGeometry x="-650.01" y="512.93" width="109.61" height="54.8" as="geometry" />
        </mxCell>
        <mxCell id="imJ08O7aE8gu0QzwsTVR-299" value="&lt;font style=&quot;font-size: 13px;&quot;&gt;split time 1&lt;/font&gt;" style="ellipse;whiteSpace=wrap;html=1;fontSize=11;container=0;fillColor=#C1CEE8;strokeColor=#3F5AB3;" parent="1" vertex="1">
          <mxGeometry x="-808.9411363636359" y="218.13796747967473" width="68.94318181818181" height="34.47154471544715" as="geometry" />
        </mxCell>
        <mxCell id="imJ08O7aE8gu0QzwsTVR-300" value="&lt;font style=&quot;font-size: 13px;&quot;&gt;split time 2&lt;/font&gt;" style="ellipse;whiteSpace=wrap;html=1;fontSize=9;container=0;fillColor=#C1CEE8;strokeColor=#3F5AB3;" parent="1" vertex="1">
          <mxGeometry x="-722.7611363636361" y="218.13796747967473" width="68.94318181818181" height="34.47154471544715" as="geometry" />
        </mxCell>
        <mxCell id="imJ08O7aE8gu0QzwsTVR-302" value="&lt;font style=&quot;font-size: 20px;&quot;&gt;Performances&lt;/font&gt;" style="text;html=1;align=center;verticalAlign=middle;whiteSpace=wrap;rounded=0;strokeColor=#b85450;fillColor=#f8cecc;strokeWidth=2;fontStyle=1;container=0;fontSize=22;" parent="1" vertex="1">
          <mxGeometry x="-665.21" y="674.41" width="140" height="40.96" as="geometry" />
        </mxCell>
        <mxCell id="imJ08O7aE8gu0QzwsTVR-326" value="" style="group" parent="1" vertex="1" connectable="0">
          <mxGeometry x="-630.4054545454546" y="739.999593495935" width="68.94318181818176" height="34.47154471544718" as="geometry" />
        </mxCell>
        <mxCell id="imJ08O7aE8gu0QzwsTVR-318" value="horse id" style="ellipse;whiteSpace=wrap;html=1;fontSize=14;container=0;fillColor=#f8cecc;strokeColor=#b85450;" parent="imJ08O7aE8gu0QzwsTVR-326" vertex="1">
          <mxGeometry width="68.94318181818181" height="34.47154471544715" as="geometry" />
        </mxCell>
        <mxCell id="imJ08O7aE8gu0QzwsTVR-325" value="" style="endArrow=none;dashed=1;html=1;rounded=0;" parent="imJ08O7aE8gu0QzwsTVR-326" edge="1">
          <mxGeometry width="50" height="50" relative="1" as="geometry">
            <mxPoint x="10.195454545454709" y="27.16040650406501" as="sourcePoint" />
            <mxPoint x="60.19545454545471" y="27.16040650406501" as="targetPoint" />
          </mxGeometry>
        </mxCell>
        <mxCell id="imJ08O7aE8gu0QzwsTVR-345" value="program number" style="ellipse;whiteSpace=wrap;html=1;fontSize=13;container=0;fillColor=#f8cecc;strokeColor=#b85450;" parent="1" vertex="1">
          <mxGeometry x="-845.8534090909092" y="788.469593495935" width="68.94318181818181" height="34.47154471544715" as="geometry" />
        </mxCell>
        <mxCell id="imJ08O7aE8gu0QzwsTVR-346" value="weight" style="ellipse;whiteSpace=wrap;html=1;fontSize=14;container=0;fillColor=#f8cecc;strokeColor=#b85450;" parent="1" vertex="1">
          <mxGeometry x="-759.6744318181819" y="788.469593495935" width="68.94318181818181" height="34.47154471544715" as="geometry" />
        </mxCell>
        <mxCell id="imJ08O7aE8gu0QzwsTVR-347" value="start pos" style="ellipse;whiteSpace=wrap;html=1;fontSize=14;container=0;fillColor=#f8cecc;strokeColor=#b85450;" parent="1" vertex="1">
          <mxGeometry x="-673.4954545454547" y="788.469593495935" width="68.94318181818181" height="34.47154471544715" as="geometry" />
        </mxCell>
        <mxCell id="imJ08O7aE8gu0QzwsTVR-348" value="final pos" style="ellipse;whiteSpace=wrap;html=1;fontSize=14;container=0;fillColor=#f8cecc;strokeColor=#b85450;" parent="1" vertex="1">
          <mxGeometry x="-585.8534090909092" y="788.4669105691057" width="68.94318181818181" height="34.47154471544715" as="geometry" />
        </mxCell>
        <mxCell id="imJ08O7aE8gu0QzwsTVR-349" value="&lt;font style=&quot;font-size: 13px;&quot;&gt;jockey id&lt;/font&gt;" style="ellipse;whiteSpace=wrap;html=1;fontSize=11;container=0;fillColor=#f8cecc;strokeColor=#b85450;" parent="1" vertex="1">
          <mxGeometry x="-499.67215909090925" y="788.4679674796748" width="68.94318181818181" height="34.47154471544715" as="geometry" />
        </mxCell>
        <mxCell id="imJ08O7aE8gu0QzwsTVR-350" value="&lt;font style=&quot;font-size: 13px;&quot;&gt;trainer id&lt;/font&gt;" style="ellipse;whiteSpace=wrap;html=1;fontSize=10;container=0;fillColor=#f8cecc;strokeColor=#b85450;" parent="1" vertex="1">
          <mxGeometry x="-413.4921590909092" y="788.4679674796748" width="68.94318181818181" height="34.47154471544715" as="geometry" />
        </mxCell>
        <mxCell id="imJ08O7aE8gu0QzwsTVR-351" value="&lt;span style=&quot;font-size: 13px;&quot;&gt;pos gained&lt;/span&gt;" style="ellipse;whiteSpace=wrap;html=1;fontSize=9;container=0;fillColor=#f8cecc;strokeColor=#b85450;" parent="1" vertex="1">
          <mxGeometry x="-673.4911363636361" y="840.1779674796749" width="68.94318181818181" height="34.47154471544715" as="geometry" />
        </mxCell>
        <mxCell id="imJ08O7aE8gu0QzwsTVR-352" value="&lt;span style=&quot;font-size: 13px;&quot;&gt;late pos gained&lt;/span&gt;" style="ellipse;whiteSpace=wrap;html=1;fontSize=9;container=0;fillColor=#f8cecc;strokeColor=#b85450;" parent="1" vertex="1">
          <mxGeometry x="-587.311136363636" y="840.1779674796749" width="68.94318181818181" height="34.47154471544715" as="geometry" />
        </mxCell>
        <mxCell id="imJ08O7aE8gu0QzwsTVR-353" value="&lt;span style=&quot;font-size: 13px;&quot;&gt;last pos gained&lt;/span&gt;" style="ellipse;whiteSpace=wrap;html=1;fontSize=10;container=0;fillColor=#f8cecc;strokeColor=#b85450;" parent="1" vertex="1">
          <mxGeometry x="-499.6731818181823" y="840.1779674796749" width="68.94318181818181" height="34.47154471544715" as="geometry" />
        </mxCell>
        <mxCell id="imJ08O7aE8gu0QzwsTVR-354" value="&lt;span style=&quot;font-size: 13px;&quot;&gt;perf factor&lt;/span&gt;" style="ellipse;whiteSpace=wrap;html=1;fontSize=10;container=0;fillColor=#f8cecc;strokeColor=#b85450;" parent="1" vertex="1">
          <mxGeometry x="-413.4931818181822" y="840.1779674796749" width="68.94318181818181" height="34.47154471544715" as="geometry" />
        </mxCell>
        <mxCell id="imJ08O7aE8gu0QzwsTVR-355" value="&lt;font style=&quot;font-size: 13px;&quot;&gt;owner id&lt;/font&gt;" style="ellipse;whiteSpace=wrap;html=1;fontSize=11;container=0;fillColor=#f8cecc;strokeColor=#b85450;" parent="1" vertex="1">
          <mxGeometry x="-845.8511363636359" y="840.1779674796746" width="68.94318181818181" height="34.47154471544715" as="geometry" />
        </mxCell>
        <mxCell id="imJ08O7aE8gu0QzwsTVR-356" value="&lt;font style=&quot;font-size: 13px;&quot;&gt;pos factor&lt;/font&gt;" style="ellipse;whiteSpace=wrap;html=1;fontSize=9;container=0;fillColor=#f8cecc;strokeColor=#b85450;" parent="1" vertex="1">
          <mxGeometry x="-759.671136363636" y="840.1779674796746" width="68.94318181818181" height="34.47154471544715" as="geometry" />
        </mxCell>
        <mxCell id="_9aKwZ4sjRnFKBoKrd0Q-1" value="&lt;font style=&quot;font-size: 13px;&quot;&gt;track state&lt;/font&gt;" style="ellipse;whiteSpace=wrap;html=1;fontSize=10;container=0;fillColor=#C1CEE8;strokeColor=#3F5AB3;" parent="1" vertex="1">
          <mxGeometry x="-550.4021590909092" y="269.90796747967477" width="68.94318181818181" height="34.47154471544715" as="geometry" />
        </mxCell>
        <mxCell id="_9aKwZ4sjRnFKBoKrd0Q-2" value="&lt;span style=&quot;font-size: 13px;&quot;&gt;use type&lt;/span&gt;" style="ellipse;whiteSpace=wrap;html=1;fontSize=10;container=0;fillColor=#f8cecc;strokeColor=#b85450;" parent="1" vertex="1">
          <mxGeometry x="-673.4931818181823" y="890.9779674796748" width="68.94318181818181" height="34.47154471544715" as="geometry" />
        </mxCell>
        <mxCell id="_9aKwZ4sjRnFKBoKrd0Q-3" value="&lt;font style=&quot;font-size: 12px;&quot;&gt;normalized name&lt;/font&gt;" style="ellipse;whiteSpace=wrap;html=1;fontSize=14;container=0;fillColor=#ffe6cc;strokeColor=#d79b00;" parent="1" vertex="1">
          <mxGeometry x="1585.2468181818176" y="106.18065040650414" width="68.94318181818181" height="34.47154471544715" as="geometry" />
        </mxCell>
        <mxCell id="_9aKwZ4sjRnFKBoKrd0Q-4" value="&lt;font style=&quot;font-size: 12px;&quot;&gt;normalized name&lt;/font&gt;" style="ellipse;whiteSpace=wrap;html=1;fontSize=14;container=0;fillColor=#d5e8d4;strokeColor=#82b366;" parent="1" vertex="1">
          <mxGeometry x="1162.3568181818177" y="840.1806504065041" width="68.94318181818181" height="34.47154471544715" as="geometry" />
        </mxCell>
        <mxCell id="_9aKwZ4sjRnFKBoKrd0Q-5" value="&lt;font style=&quot;font-size: 12px;&quot;&gt;normalized name&lt;/font&gt;" style="ellipse;whiteSpace=wrap;html=1;fontSize=14;container=0;fillColor=#fff2cc;strokeColor=#d6b656;" parent="1" vertex="1">
          <mxGeometry x="842.7568181818176" y="106.18065040650414" width="68.94318181818181" height="34.47154471544715" as="geometry" />
        </mxCell>
        <mxCell id="_9aKwZ4sjRnFKBoKrd0Q-6" value="&lt;font style=&quot;font-size: 12px;&quot;&gt;ewma speed&lt;/font&gt;" style="ellipse;whiteSpace=wrap;html=1;fontSize=14;container=0;fillColor=#CCFFE6;strokeColor=#66FFB3;" parent="1" vertex="1">
          <mxGeometry x="94.7168181818176" y="258.58065040650416" width="68.94318181818181" height="34.47154471544715" as="geometry" />
        </mxCell>
        <mxCell id="_9aKwZ4sjRnFKBoKrd0Q-7" value="&lt;font style=&quot;font-size: 12px;&quot;&gt;normalized name&lt;/font&gt;" style="ellipse;whiteSpace=wrap;html=1;fontSize=14;container=0;fillColor=#dae8fc;strokeColor=#6c8ebf;" parent="1" vertex="1">
          <mxGeometry x="184.14681818181765" y="840.1806504065041" width="68.94318181818181" height="34.47154471544715" as="geometry" />
        </mxCell>
        <mxCell id="_9aKwZ4sjRnFKBoKrd0Q-8" value="&lt;span style=&quot;font-size: 13px;&quot;&gt;odds&lt;/span&gt;" style="ellipse;whiteSpace=wrap;html=1;fontSize=10;container=0;fillColor=#f8cecc;strokeColor=#b85450;" parent="1" vertex="1">
          <mxGeometry x="-587.3131818181822" y="890.9779674796748" width="68.94318181818181" height="34.47154471544715" as="geometry" />
        </mxCell>
        <mxCell id="_9aKwZ4sjRnFKBoKrd0Q-9" value="surface" style="ellipse;whiteSpace=wrap;html=1;fontSize=14;container=0;fillColor=#E0FFFF;strokeColor=#56517E;fontStyle=4" parent="1" vertex="1">
          <mxGeometry x="504.3845454545452" y="94.45959349593507" width="68.94318181818181" height="34.47154471544715" as="geometry" />
        </mxCell>
        <mxCell id="_9aKwZ4sjRnFKBoKrd0Q-10" value="&lt;u&gt;surface&lt;/u&gt;" style="ellipse;whiteSpace=wrap;html=1;fontSize=14;container=0;fillColor=#FFCCFF;strokeColor=#990099;" parent="1" vertex="1">
          <mxGeometry x="-58.61545454545478" y="523.0895934959351" width="68.94318181818181" height="34.47154471544715" as="geometry" />
        </mxCell>
        <mxCell id="b-XIg6glGuxsauv7B69q-1" value="&lt;font style=&quot;font-size: 12px;&quot;&gt;normalized name&lt;/font&gt;" style="ellipse;whiteSpace=wrap;html=1;fontSize=14;container=0;fillColor=#CCFFE6;strokeColor=#66FFB3;" vertex="1" parent="1">
          <mxGeometry x="8.536818181817566" y="258.5806504065041" width="68.94318181818181" height="34.47154471544715" as="geometry" />
        </mxCell>
        <mxCell id="b-XIg6glGuxsauv7B69q-2" value="&lt;font style=&quot;font-size: 13px;&quot;&gt;speed&lt;/font&gt;" style="ellipse;whiteSpace=wrap;html=1;fontSize=10;container=0;fillColor=#C1CEE8;strokeColor=#3F5AB3;" vertex="1" parent="1">
          <mxGeometry x="-462.7621590909092" y="269.91796747967476" width="68.94318181818181" height="34.47154471544715" as="geometry" />
        </mxCell>
      </root>
    </mxGraphModel>
  </diagram>
</mxfile>
